<mxfile host="65bd71144e" pages="4">
    <diagram name="Context" id="t5bK8tVMOegV2WGymt9l">
        <mxGraphModel dx="1086" dy="702" grid="1" gridSize="10" guides="1" tooltips="1" connect="1" arrows="1" fold="1" page="1" pageScale="1" pageWidth="850" pageHeight="1100" background="#FFFFFF" math="0" shadow="0">
            <root>
                <mxCell id="0"/>
                <mxCell id="1" parent="0"/>
                <mxCell id="Mj_6wpQkoEJplCohkM_7-6" value="" style="edgeStyle=orthogonalEdgeStyle;rounded=0;orthogonalLoop=1;jettySize=auto;html=1;entryX=0;entryY=0.5;entryDx=0;entryDy=0;labelBackgroundColor=none;fontColor=default;" parent="1" source="Mj_6wpQkoEJplCohkM_7-1" target="Mj_6wpQkoEJplCohkM_7-5" edge="1">
                    <mxGeometry relative="1" as="geometry">
                        <Array as="points">
                            <mxPoint x="510" y="430"/>
                            <mxPoint x="510" y="520"/>
                        </Array>
                    </mxGeometry>
                </mxCell>
                <mxCell id="Mj_6wpQkoEJplCohkM_7-1" value="&lt;font style=&quot;font-size: 14px;&quot; face=&quot;Georgia&quot;&gt;&lt;b style=&quot;&quot;&gt;STREAMLIT APP&lt;/b&gt;&lt;/font&gt;&lt;div&gt;&lt;font face=&quot;Georgia&quot;&gt;&lt;br&gt;&lt;/font&gt;&lt;/div&gt;&lt;div&gt;&lt;font face=&quot;Georgia&quot;&gt;&lt;i&gt;(Homologation Certificate Processing and Data Export)&lt;/i&gt;&lt;/font&gt;&lt;/div&gt;" style="rounded=0;whiteSpace=wrap;html=1;labelBackgroundColor=none;" parent="1" vertex="1">
                    <mxGeometry x="280" y="380" width="190" height="100" as="geometry"/>
                </mxCell>
                <mxCell id="Mj_6wpQkoEJplCohkM_7-3" value="" style="edgeStyle=orthogonalEdgeStyle;rounded=0;orthogonalLoop=1;jettySize=auto;html=1;labelBackgroundColor=none;fontColor=default;" parent="1" source="Mj_6wpQkoEJplCohkM_7-2" target="Mj_6wpQkoEJplCohkM_7-1" edge="1">
                    <mxGeometry relative="1" as="geometry"/>
                </mxCell>
                <mxCell id="Mj_6wpQkoEJplCohkM_7-2" value="&lt;b&gt;&lt;font style=&quot;font-size: 14px;&quot; face=&quot;Georgia&quot;&gt;USER&lt;/font&gt;&lt;/b&gt;" style="ellipse;whiteSpace=wrap;html=1;labelBackgroundColor=none;rounded=0;" parent="1" vertex="1">
                    <mxGeometry x="80" y="390" width="130" height="80" as="geometry"/>
                </mxCell>
                <mxCell id="Mj_6wpQkoEJplCohkM_7-4" value="&lt;div&gt;&lt;font face=&quot;Georgia&quot;&gt;&lt;br&gt;&lt;/font&gt;&lt;/div&gt;&lt;b&gt;&lt;font face=&quot;Georgia&quot; style=&quot;font-size: 14px;&quot;&gt;AZURE OPENAI&amp;nbsp;&lt;/font&gt;&lt;/b&gt;&lt;div&gt;&lt;span style=&quot;background-color: transparent; color: light-dark(rgb(0, 0, 0), rgb(255, 255, 255));&quot;&gt;&lt;i&gt;&lt;font face=&quot;Georgia&quot;&gt;(gpt-4.1)&amp;nbsp;&lt;/font&gt;&lt;/i&gt;&lt;/span&gt;&lt;/div&gt;" style="rhombus;whiteSpace=wrap;html=1;labelBackgroundColor=none;rounded=0;" parent="1" vertex="1">
                    <mxGeometry x="560" y="270" width="150" height="140" as="geometry"/>
                </mxCell>
                <mxCell id="Mj_6wpQkoEJplCohkM_7-5" value="&lt;div&gt;&lt;font face=&quot;Georgia&quot;&gt;&lt;br&gt;&lt;/font&gt;&lt;/div&gt;&lt;div&gt;&lt;span style=&quot;background-color: transparent; color: light-dark(rgb(0, 0, 0), rgb(255, 255, 255));&quot;&gt;&lt;font style=&quot;&quot; face=&quot;Georgia&quot;&gt;&lt;span style=&quot;font-size: 14px;&quot;&gt;&lt;b&gt;AZURE AI VISION&lt;/b&gt;&lt;/span&gt;&lt;/font&gt;&lt;/span&gt;&lt;/div&gt;&lt;div&gt;&lt;span style=&quot;background-color: transparent; color: light-dark(rgb(0, 0, 0), rgb(255, 255, 255));&quot;&gt;&lt;font style=&quot;&quot; face=&quot;Georgia&quot;&gt;&lt;i&gt;(OCR)&amp;nbsp;&lt;/i&gt;&lt;/font&gt;&lt;/span&gt;&lt;/div&gt;" style="rhombus;whiteSpace=wrap;html=1;labelBackgroundColor=none;rounded=0;" parent="1" vertex="1">
                    <mxGeometry x="560" y="450" width="150" height="140" as="geometry"/>
                </mxCell>
                <mxCell id="Mj_6wpQkoEJplCohkM_7-8" value="" style="edgeStyle=orthogonalEdgeStyle;rounded=0;orthogonalLoop=1;jettySize=auto;html=1;entryX=0;entryY=0.5;entryDx=0;entryDy=0;labelBackgroundColor=none;fontColor=default;" parent="1" target="Mj_6wpQkoEJplCohkM_7-4" edge="1">
                    <mxGeometry relative="1" as="geometry">
                        <mxPoint x="510" y="430" as="sourcePoint"/>
                        <mxPoint x="600" y="540" as="targetPoint"/>
                        <Array as="points">
                            <mxPoint x="510" y="340"/>
                        </Array>
                    </mxGeometry>
                </mxCell>
            </root>
        </mxGraphModel>
    </diagram>
    <diagram id="ntP4CN4S2A4kHJg8kaSv" name="Container">
        <mxGraphModel dx="1086" dy="702" grid="1" gridSize="10" guides="1" tooltips="1" connect="1" arrows="1" fold="1" page="1" pageScale="1" pageWidth="850" pageHeight="1100" background="none" math="0" shadow="0">
            <root>
                <mxCell id="0"/>
                <mxCell id="1" parent="0"/>
                <mxCell id="gkHl5u8TG1O454CvORQ--13" value="" style="edgeStyle=orthogonalEdgeStyle;rounded=0;orthogonalLoop=1;jettySize=auto;html=1;" parent="1" source="gkHl5u8TG1O454CvORQ--1" target="gkHl5u8TG1O454CvORQ--3" edge="1">
                    <mxGeometry relative="1" as="geometry"/>
                </mxCell>
                <mxCell id="gkHl5u8TG1O454CvORQ--1" value="&lt;font&gt;&lt;b style=&quot;&quot;&gt;STREAMLIT APP&lt;/b&gt;&lt;/font&gt;&lt;div&gt;&lt;font style=&quot;font-size: 12px;&quot;&gt;&lt;br&gt;&lt;/font&gt;&lt;/div&gt;&lt;div&gt;&lt;font style=&quot;font-size: 12px;&quot;&gt;&lt;i style=&quot;&quot;&gt;(Homologation Certificate Processing and Data Export)&lt;/i&gt;&lt;/font&gt;&lt;/div&gt;" style="rounded=0;whiteSpace=wrap;html=1;labelBackgroundColor=none;fontFamily=Georgia;fontSize=14;" parent="1" vertex="1">
                    <mxGeometry x="20" y="500" width="190" height="100" as="geometry"/>
                </mxCell>
                <mxCell id="gkHl5u8TG1O454CvORQ--29" value="" style="edgeStyle=orthogonalEdgeStyle;rounded=0;orthogonalLoop=1;jettySize=auto;html=1;" parent="1" source="gkHl5u8TG1O454CvORQ--3" target="gkHl5u8TG1O454CvORQ--8" edge="1">
                    <mxGeometry relative="1" as="geometry"/>
                </mxCell>
                <mxCell id="gkHl5u8TG1O454CvORQ--3" value="CERTIFICATE ENHANCE" style="ellipse;whiteSpace=wrap;html=1;fontFamily=Georgia;fontSize=14;" parent="1" vertex="1">
                    <mxGeometry x="290" y="495" width="180" height="110" as="geometry"/>
                </mxCell>
                <mxCell id="gkHl5u8TG1O454CvORQ--8" value="&lt;div&gt;&lt;br&gt;&lt;/div&gt;IMAGE RESIZE&lt;div&gt;&lt;font style=&quot;font-size: 12px;&quot;&gt;&lt;i&gt;(Zoom 4.5)&lt;/i&gt;&lt;/font&gt;&lt;/div&gt;" style="rhombus;whiteSpace=wrap;html=1;fontFamily=Georgia;fontSize=14;" parent="1" vertex="1">
                    <mxGeometry x="550" y="490" width="130" height="120" as="geometry"/>
                </mxCell>
                <mxCell id="gkHl5u8TG1O454CvORQ--20" value="" style="edgeStyle=orthogonalEdgeStyle;rounded=0;orthogonalLoop=1;jettySize=auto;html=1;" parent="1" source="gkHl5u8TG1O454CvORQ--9" target="gkHl5u8TG1O454CvORQ--11" edge="1">
                    <mxGeometry relative="1" as="geometry"/>
                </mxCell>
                <mxCell id="gkHl5u8TG1O454CvORQ--9" value="CERTIFICATE PROCESS" style="ellipse;whiteSpace=wrap;html=1;fontFamily=Georgia;fontSize=14;" parent="1" vertex="1">
                    <mxGeometry x="290" y="650" width="180" height="110" as="geometry"/>
                </mxCell>
                <mxCell id="gkHl5u8TG1O454CvORQ--10" value="CERTIFICATE UPLOAD&amp;nbsp;" style="ellipse;whiteSpace=wrap;html=1;fontFamily=Georgia;fontSize=14;" parent="1" vertex="1">
                    <mxGeometry x="290" y="340" width="180" height="110" as="geometry"/>
                </mxCell>
                <mxCell id="gkHl5u8TG1O454CvORQ--24" value="" style="edgeStyle=orthogonalEdgeStyle;rounded=0;orthogonalLoop=1;jettySize=auto;html=1;entryX=0;entryY=0.25;entryDx=0;entryDy=0;" parent="1" source="gkHl5u8TG1O454CvORQ--11" target="gkHl5u8TG1O454CvORQ--23" edge="1">
                    <mxGeometry relative="1" as="geometry">
                        <mxPoint x="740" y="680" as="targetPoint"/>
                    </mxGeometry>
                </mxCell>
                <mxCell id="gkHl5u8TG1O454CvORQ--11" value="&lt;div&gt;EXTRACT BOUNDING BOX&lt;/div&gt;&lt;div&gt;&lt;font style=&quot;font-size: 12px;&quot;&gt;&lt;i&gt;(OCR)&lt;/i&gt;&lt;/font&gt;&lt;/div&gt;" style="rhombus;whiteSpace=wrap;html=1;fontFamily=Georgia;fontSize=14;" parent="1" vertex="1">
                    <mxGeometry x="550" y="645" width="130" height="120" as="geometry"/>
                </mxCell>
                <mxCell id="gkHl5u8TG1O454CvORQ--12" value="&lt;br&gt;&lt;div&gt;&lt;div&gt;EXTRACT DATA&lt;/div&gt;&lt;div&gt;&lt;font style=&quot;font-size: 12px;&quot;&gt;&lt;i&gt;(gpt-4.1)&lt;/i&gt;&lt;/font&gt;&lt;/div&gt;&lt;/div&gt;" style="rhombus;whiteSpace=wrap;html=1;fontFamily=Georgia;fontSize=14;" parent="1" vertex="1">
                    <mxGeometry x="550" y="810" width="130" height="120" as="geometry"/>
                </mxCell>
                <mxCell id="gkHl5u8TG1O454CvORQ--15" value="" style="edgeStyle=orthogonalEdgeStyle;rounded=0;orthogonalLoop=1;jettySize=auto;html=1;entryX=0;entryY=0.5;entryDx=0;entryDy=0;" parent="1" target="gkHl5u8TG1O454CvORQ--10" edge="1">
                    <mxGeometry relative="1" as="geometry">
                        <mxPoint x="210" y="550" as="sourcePoint"/>
                        <mxPoint x="250" y="370" as="targetPoint"/>
                    </mxGeometry>
                </mxCell>
                <mxCell id="gkHl5u8TG1O454CvORQ--17" value="" style="edgeStyle=orthogonalEdgeStyle;rounded=0;orthogonalLoop=1;jettySize=auto;html=1;entryX=0;entryY=0.5;entryDx=0;entryDy=0;" parent="1" target="gkHl5u8TG1O454CvORQ--9" edge="1">
                    <mxGeometry relative="1" as="geometry">
                        <mxPoint x="250" y="550" as="sourcePoint"/>
                        <mxPoint x="154.75" y="700" as="targetPoint"/>
                        <Array as="points">
                            <mxPoint x="250" y="705"/>
                        </Array>
                    </mxGeometry>
                </mxCell>
                <mxCell id="gkHl5u8TG1O454CvORQ--18" value="&lt;font face=&quot;Georgia&quot; style=&quot;font-size: 14px;&quot;&gt;&lt;b&gt;CERTIFICATE PREVIEW&lt;/b&gt;&lt;/font&gt;" style="whiteSpace=wrap;html=1;aspect=fixed;" parent="1" vertex="1">
                    <mxGeometry x="930" y="390" width="120" height="120" as="geometry"/>
                </mxCell>
                <mxCell id="gkHl5u8TG1O454CvORQ--33" value="" style="edgeStyle=orthogonalEdgeStyle;rounded=0;orthogonalLoop=1;jettySize=auto;html=1;" parent="1" source="gkHl5u8TG1O454CvORQ--19" target="gkHl5u8TG1O454CvORQ--32" edge="1">
                    <mxGeometry relative="1" as="geometry"/>
                </mxCell>
                <mxCell id="gkHl5u8TG1O454CvORQ--19" value="&lt;font face=&quot;Georgia&quot; style=&quot;font-size: 14px;&quot;&gt;&lt;b&gt;PROCESSING&amp;nbsp; &amp;nbsp;OUTPUT&lt;/b&gt;&lt;/font&gt;" style="whiteSpace=wrap;html=1;aspect=fixed;" parent="1" vertex="1">
                    <mxGeometry x="930" y="740" width="120" height="120" as="geometry"/>
                </mxCell>
                <mxCell id="gkHl5u8TG1O454CvORQ--22" value="" style="edgeStyle=orthogonalEdgeStyle;rounded=0;orthogonalLoop=1;jettySize=auto;html=1;exitX=1;exitY=0.5;exitDx=0;exitDy=0;entryX=0;entryY=0.5;entryDx=0;entryDy=0;" parent="1" source="gkHl5u8TG1O454CvORQ--9" target="gkHl5u8TG1O454CvORQ--12" edge="1">
                    <mxGeometry relative="1" as="geometry">
                        <mxPoint x="310" y="880" as="sourcePoint"/>
                        <mxPoint x="430" y="910" as="targetPoint"/>
                    </mxGeometry>
                </mxCell>
                <mxCell id="gkHl5u8TG1O454CvORQ--28" value="" style="edgeStyle=orthogonalEdgeStyle;rounded=0;orthogonalLoop=1;jettySize=auto;html=1;entryX=0;entryY=0.75;entryDx=0;entryDy=0;" parent="1" source="gkHl5u8TG1O454CvORQ--23" target="gkHl5u8TG1O454CvORQ--18" edge="1">
                    <mxGeometry relative="1" as="geometry"/>
                </mxCell>
                <mxCell id="gkHl5u8TG1O454CvORQ--23" value="&lt;i&gt;&lt;font face=&quot;Georgia&quot;&gt;match&lt;/font&gt;&lt;/i&gt;" style="triangle;whiteSpace=wrap;html=1;" parent="1" vertex="1">
                    <mxGeometry x="790" y="685" width="60" height="80" as="geometry"/>
                </mxCell>
                <mxCell id="gkHl5u8TG1O454CvORQ--25" value="" style="edgeStyle=orthogonalEdgeStyle;rounded=0;orthogonalLoop=1;jettySize=auto;html=1;entryX=0;entryY=0.75;entryDx=0;entryDy=0;exitX=1;exitY=0;exitDx=0;exitDy=0;" parent="1" source="gkHl5u8TG1O454CvORQ--12" target="gkHl5u8TG1O454CvORQ--23" edge="1">
                    <mxGeometry relative="1" as="geometry">
                        <mxPoint x="710" y="700" as="sourcePoint"/>
                        <mxPoint x="820" y="700" as="targetPoint"/>
                    </mxGeometry>
                </mxCell>
                <mxCell id="gkHl5u8TG1O454CvORQ--26" value="" style="edgeStyle=orthogonalEdgeStyle;rounded=0;orthogonalLoop=1;jettySize=auto;html=1;entryX=0;entryY=0.5;entryDx=0;entryDy=0;exitX=1;exitY=1;exitDx=0;exitDy=0;" parent="1" source="gkHl5u8TG1O454CvORQ--12" target="gkHl5u8TG1O454CvORQ--19" edge="1">
                    <mxGeometry relative="1" as="geometry">
                        <mxPoint x="700" y="935" as="sourcePoint"/>
                        <mxPoint x="842" y="840" as="targetPoint"/>
                    </mxGeometry>
                </mxCell>
                <mxCell id="gkHl5u8TG1O454CvORQ--30" value="" style="edgeStyle=orthogonalEdgeStyle;rounded=0;orthogonalLoop=1;jettySize=auto;html=1;exitX=1;exitY=0.5;exitDx=0;exitDy=0;entryX=0;entryY=0.5;entryDx=0;entryDy=0;" parent="1" source="gkHl5u8TG1O454CvORQ--8" target="gkHl5u8TG1O454CvORQ--18" edge="1">
                    <mxGeometry relative="1" as="geometry">
                        <mxPoint x="890" y="785" as="sourcePoint"/>
                        <mxPoint x="880" y="460" as="targetPoint"/>
                    </mxGeometry>
                </mxCell>
                <mxCell id="gkHl5u8TG1O454CvORQ--31" value="" style="edgeStyle=orthogonalEdgeStyle;rounded=0;orthogonalLoop=1;jettySize=auto;html=1;entryX=0;entryY=0.25;entryDx=0;entryDy=0;exitX=1;exitY=0.5;exitDx=0;exitDy=0;" parent="1" source="gkHl5u8TG1O454CvORQ--10" target="gkHl5u8TG1O454CvORQ--18" edge="1">
                    <mxGeometry relative="1" as="geometry">
                        <mxPoint x="770" y="671" as="sourcePoint"/>
                        <mxPoint x="1021" y="560" as="targetPoint"/>
                    </mxGeometry>
                </mxCell>
                <mxCell id="gkHl5u8TG1O454CvORQ--32" value="&lt;font style=&quot;font-size: 14px;&quot; face=&quot;Georgia&quot;&gt;&lt;b&gt;EDIT AND DOWNLOAD CSV&lt;/b&gt;&lt;/font&gt;" style="shape=hexagon;perimeter=hexagonPerimeter2;whiteSpace=wrap;html=1;fixedSize=1;" parent="1" vertex="1">
                    <mxGeometry x="1130" y="760" width="150" height="80" as="geometry"/>
                </mxCell>
            </root>
        </mxGraphModel>
    </diagram>
    <diagram id="EXHF72hPMuSSIPwg_YHL" name="Component">
        <mxGraphModel dx="1086" dy="702" grid="1" gridSize="10" guides="1" tooltips="1" connect="1" arrows="1" fold="1" page="1" pageScale="1" pageWidth="850" pageHeight="1100" math="0" shadow="0">
            <root>
                <mxCell id="0"/>
                <mxCell id="1" parent="0"/>
                <mxCell id="pY-AhCHeQFqQHPjmwvip-1" value="CERTIFICATE PROCESSING" style="rounded=0;whiteSpace=wrap;html=1;fontFamily=Georgia;fontSize=14;fontStyle=1" parent="1" vertex="1">
                    <mxGeometry x="40" y="390" width="180" height="90" as="geometry"/>
                </mxCell>
                <mxCell id="g3jKFZ-1nTDJj9CWqdnH-1" value="EXTRACT BOUNDING BOX&lt;div&gt;&lt;font style=&quot;font-size: 12px; font-weight: normal;&quot;&gt;&lt;i&gt;(For text in entire certificate)&lt;/i&gt;&lt;/font&gt;&lt;/div&gt;" style="ellipse;whiteSpace=wrap;html=1;fontFamily=Georgia;fontSize=14;fontStyle=1" parent="1" vertex="1">
                    <mxGeometry x="290" y="480" width="210" height="120" as="geometry"/>
                </mxCell>
                <mxCell id="Jg281X7ow840nejg4zxB-11" value="" style="edgeStyle=orthogonalEdgeStyle;rounded=0;orthogonalLoop=1;jettySize=auto;html=1;" parent="1" source="BfIA3Ds6zeoHtAR9mvsT-1" target="Jg281X7ow840nejg4zxB-3" edge="1">
                    <mxGeometry relative="1" as="geometry"/>
                </mxCell>
                <mxCell id="BfIA3Ds6zeoHtAR9mvsT-1" value="&lt;div&gt;&lt;span style=&quot;background-color: transparent; color: light-dark(rgb(0, 0, 0), rgb(255, 255, 255));&quot;&gt;REQUIRED FORMAT&lt;/span&gt;&lt;/div&gt;" style="rhombus;whiteSpace=wrap;html=1;fontFamily=Georgia;fontSize=14;fontStyle=1" parent="1" vertex="1">
                    <mxGeometry x="580" y="150" width="150" height="140" as="geometry"/>
                </mxCell>
                <mxCell id="BfIA3Ds6zeoHtAR9mvsT-5" value="&lt;div&gt;&lt;br&gt;&lt;/div&gt;DOWNLOAD CSV" style="shape=card;whiteSpace=wrap;html=1;fontFamily=Georgia;fontSize=14;fontStyle=1" parent="1" vertex="1">
                    <mxGeometry x="1050" y="165" width="100" height="110" as="geometry"/>
                </mxCell>
                <mxCell id="BfIA3Ds6zeoHtAR9mvsT-7" value="FIELD-ALIGNED BOUNDING BOXES&lt;div&gt;&lt;font style=&quot;font-size: 12px;&quot;&gt;&lt;i style=&quot;font-weight: normal;&quot;&gt;(Plot bounding boxes corresponding to LLM-extracted fields)&lt;/i&gt;&lt;/font&gt;&lt;/div&gt;" style="shape=hexagon;perimeter=hexagonPerimeter2;whiteSpace=wrap;html=1;fixedSize=1;fontFamily=Georgia;fontSize=14;fontStyle=1" parent="1" vertex="1">
                    <mxGeometry x="770" y="460" width="240" height="110" as="geometry"/>
                </mxCell>
                <mxCell id="BfIA3Ds6zeoHtAR9mvsT-8" value="&lt;div&gt;&lt;span style=&quot;background-color: transparent; color: light-dark(rgb(0, 0, 0), rgb(255, 255, 255));&quot;&gt;ACTUAL DATA&lt;/span&gt;&lt;/div&gt;" style="rhombus;whiteSpace=wrap;html=1;fontFamily=Georgia;fontSize=14;fontStyle=1" parent="1" vertex="1">
                    <mxGeometry x="580" y="365" width="150" height="140" as="geometry"/>
                </mxCell>
                <mxCell id="Jg281X7ow840nejg4zxB-12" value="" style="edgeStyle=orthogonalEdgeStyle;rounded=0;orthogonalLoop=1;jettySize=auto;html=1;" parent="1" source="BfIA3Ds6zeoHtAR9mvsT-10" target="BfIA3Ds6zeoHtAR9mvsT-8" edge="1">
                    <mxGeometry relative="1" as="geometry"/>
                </mxCell>
                <mxCell id="BfIA3Ds6zeoHtAR9mvsT-10" value="EXTRACT DATA" style="ellipse;whiteSpace=wrap;html=1;fontFamily=Georgia;fontSize=14;fontStyle=1" parent="1" vertex="1">
                    <mxGeometry x="290" y="270" width="210" height="120" as="geometry"/>
                </mxCell>
                <mxCell id="Jg281X7ow840nejg4zxB-8" value="" style="edgeStyle=orthogonalEdgeStyle;rounded=0;orthogonalLoop=1;jettySize=auto;html=1;" parent="1" source="Jg281X7ow840nejg4zxB-3" target="BfIA3Ds6zeoHtAR9mvsT-5" edge="1">
                    <mxGeometry relative="1" as="geometry"/>
                </mxCell>
                <mxCell id="Jg281X7ow840nejg4zxB-3" value="EDITABLE DATAFRAME&lt;div&gt;&lt;font style=&quot;font-size: 12px;&quot;&gt;&lt;i style=&quot;font-weight: normal;&quot;&gt;(edit with reference to certificate preview - bounding boxes)&lt;/i&gt;&lt;/font&gt;&lt;/div&gt;" style="shape=hexagon;perimeter=hexagonPerimeter2;whiteSpace=wrap;html=1;fixedSize=1;fontFamily=Georgia;fontSize=14;fontStyle=1" parent="1" vertex="1">
                    <mxGeometry x="760" y="165" width="240" height="110" as="geometry"/>
                </mxCell>
                <mxCell id="Jg281X7ow840nejg4zxB-4" value="&lt;font face=&quot;Georgia&quot; style=&quot;font-size: 14px;&quot;&gt;&lt;b&gt;AZURE AI&amp;nbsp;&lt;/b&gt;&lt;/font&gt;&lt;div&gt;&lt;font face=&quot;Georgia&quot; style=&quot;font-size: 14px;&quot;&gt;&lt;b&gt;VISION&lt;/b&gt;&lt;/font&gt;&lt;/div&gt;&lt;div&gt;&lt;i&gt;(OCR)&lt;/i&gt;&amp;nbsp;&lt;/div&gt;" style="triangle;whiteSpace=wrap;html=1;direction=south;" parent="1" vertex="1">
                    <mxGeometry x="320" y="640" width="150" height="80" as="geometry"/>
                </mxCell>
                <mxCell id="Jg281X7ow840nejg4zxB-5" value="&lt;div&gt;&lt;font face=&quot;Georgia&quot; style=&quot;font-size: 14px;&quot;&gt;&lt;b&gt;&lt;br&gt;&lt;/b&gt;&lt;/font&gt;&lt;/div&gt;&lt;font face=&quot;Georgia&quot; style=&quot;font-size: 14px;&quot;&gt;&lt;b&gt;&lt;div&gt;&lt;font face=&quot;Georgia&quot; style=&quot;font-size: 14px;&quot;&gt;&lt;b&gt;&lt;br&gt;&lt;/b&gt;&lt;/font&gt;&lt;/div&gt;AZURE&amp;nbsp;&lt;/b&gt;&lt;/font&gt;&lt;div&gt;&lt;font face=&quot;Georgia&quot; style=&quot;font-size: 14px;&quot;&gt;&lt;b&gt;OPENAI&lt;/b&gt;&lt;/font&gt;&lt;div&gt;&lt;i&gt;(gpt-4.1)&lt;/i&gt;&amp;nbsp;&lt;/div&gt;&lt;/div&gt;" style="triangle;whiteSpace=wrap;html=1;direction=north;" parent="1" vertex="1">
                    <mxGeometry x="320" y="150" width="150" height="80" as="geometry"/>
                </mxCell>
                <mxCell id="Jg281X7ow840nejg4zxB-6" value="" style="endArrow=classic;startArrow=classic;html=1;rounded=0;entryX=0;entryY=0.5;entryDx=0;entryDy=0;exitX=0.5;exitY=0;exitDx=0;exitDy=0;" parent="1" source="BfIA3Ds6zeoHtAR9mvsT-10" target="Jg281X7ow840nejg4zxB-5" edge="1">
                    <mxGeometry width="50" height="50" relative="1" as="geometry">
                        <mxPoint x="700" y="480" as="sourcePoint"/>
                        <mxPoint x="750" y="430" as="targetPoint"/>
                    </mxGeometry>
                </mxCell>
                <mxCell id="Jg281X7ow840nejg4zxB-7" value="" style="endArrow=classic;startArrow=classic;html=1;rounded=0;entryX=0.5;entryY=1;entryDx=0;entryDy=0;exitX=0;exitY=0.5;exitDx=0;exitDy=0;" parent="1" source="Jg281X7ow840nejg4zxB-4" target="g3jKFZ-1nTDJj9CWqdnH-1" edge="1">
                    <mxGeometry width="50" height="50" relative="1" as="geometry">
                        <mxPoint x="390" y="280" as="sourcePoint"/>
                        <mxPoint x="390" y="240" as="targetPoint"/>
                    </mxGeometry>
                </mxCell>
                <mxCell id="Jg281X7ow840nejg4zxB-9" value="" style="endArrow=classic;html=1;rounded=0;exitX=1;exitY=0.5;exitDx=0;exitDy=0;entryX=0;entryY=0.5;entryDx=0;entryDy=0;" parent="1" source="pY-AhCHeQFqQHPjmwvip-1" target="BfIA3Ds6zeoHtAR9mvsT-10" edge="1">
                    <mxGeometry width="50" height="50" relative="1" as="geometry">
                        <mxPoint x="700" y="480" as="sourcePoint"/>
                        <mxPoint x="750" y="430" as="targetPoint"/>
                        <Array as="points">
                            <mxPoint x="260" y="435"/>
                            <mxPoint x="260" y="330"/>
                        </Array>
                    </mxGeometry>
                </mxCell>
                <mxCell id="Jg281X7ow840nejg4zxB-10" value="" style="endArrow=classic;html=1;rounded=0;exitX=1;exitY=0.5;exitDx=0;exitDy=0;entryX=0;entryY=0.5;entryDx=0;entryDy=0;" parent="1" source="pY-AhCHeQFqQHPjmwvip-1" target="g3jKFZ-1nTDJj9CWqdnH-1" edge="1">
                    <mxGeometry width="50" height="50" relative="1" as="geometry">
                        <mxPoint x="700" y="480" as="sourcePoint"/>
                        <mxPoint x="750" y="430" as="targetPoint"/>
                        <Array as="points">
                            <mxPoint x="260" y="435"/>
                            <mxPoint x="260" y="540"/>
                        </Array>
                    </mxGeometry>
                </mxCell>
                <mxCell id="Jg281X7ow840nejg4zxB-13" value="" style="edgeStyle=orthogonalEdgeStyle;rounded=0;orthogonalLoop=1;jettySize=auto;html=1;exitX=1;exitY=0.5;exitDx=0;exitDy=0;entryX=0;entryY=0.5;entryDx=0;entryDy=0;" parent="1" source="BfIA3Ds6zeoHtAR9mvsT-10" target="BfIA3Ds6zeoHtAR9mvsT-1" edge="1">
                    <mxGeometry relative="1" as="geometry">
                        <mxPoint x="530" y="350" as="sourcePoint"/>
                        <mxPoint x="610" y="455" as="targetPoint"/>
                    </mxGeometry>
                </mxCell>
                <mxCell id="Jg281X7ow840nejg4zxB-15" value="" style="edgeStyle=orthogonalEdgeStyle;rounded=0;orthogonalLoop=1;jettySize=auto;html=1;exitX=1;exitY=1;exitDx=0;exitDy=0;entryX=0;entryY=0.25;entryDx=0;entryDy=0;" parent="1" source="BfIA3Ds6zeoHtAR9mvsT-8" target="BfIA3Ds6zeoHtAR9mvsT-7" edge="1">
                    <mxGeometry relative="1" as="geometry">
                        <mxPoint x="540" y="370" as="sourcePoint"/>
                        <mxPoint x="620" y="475" as="targetPoint"/>
                        <Array as="points">
                            <mxPoint x="693" y="490"/>
                        </Array>
                    </mxGeometry>
                </mxCell>
                <mxCell id="Jg281X7ow840nejg4zxB-16" value="" style="edgeStyle=orthogonalEdgeStyle;rounded=0;orthogonalLoop=1;jettySize=auto;html=1;exitX=1;exitY=0.5;exitDx=0;exitDy=0;entryX=0;entryY=0.75;entryDx=0;entryDy=0;" parent="1" source="g3jKFZ-1nTDJj9CWqdnH-1" target="BfIA3Ds6zeoHtAR9mvsT-7" edge="1">
                    <mxGeometry relative="1" as="geometry">
                        <mxPoint x="710" y="500" as="sourcePoint"/>
                        <mxPoint x="786" y="530" as="targetPoint"/>
                        <Array as="points">
                            <mxPoint x="769" y="540"/>
                        </Array>
                    </mxGeometry>
                </mxCell>
            </root>
        </mxGraphModel>
    </diagram>
    <diagram id="q4Dr1Xj-e6G7H7EE0Shc" name="Code">
        <mxGraphModel dx="1086" dy="702" grid="1" gridSize="10" guides="1" tooltips="1" connect="1" arrows="1" fold="1" page="1" pageScale="1" pageWidth="850" pageHeight="1100" math="0" shadow="0">
            <root>
                <mxCell id="0"/>
                <mxCell id="1" parent="0"/>
            </root>
        </mxGraphModel>
    </diagram>
</mxfile>